<?xml version="1.0" encoding="UTF-8"?>
<svg xmlns="http://www.w3.org/2000/svg"
     viewBox="0 68 1024 1447"
     preserveAspectRatio="xMidYMid meet">


  <g fill="none" stroke="#000" stroke-width="3" stroke-linecap="round" stroke-linejoin="round">
    <path id="p100" data-bbox="0,68,1024,1447" d="M 406 72 L 272 121 L 110 271 L 97 349 L 121 525 L 92 535 L 83 578 L 139 789 L 209 803 L 221 926 L 133 1022 L 0 1109 L 114 1044 L 219 939 L 232 1122 L 322 1382 L 354 1385 L 469 1262 L 491 1381 L 466 1503 L 494 1388 L 549 1371 L 577 1379 L 618 1514 L 580 1371 L 613 1243 L 732 1347 L 708 1057 L 1023 1158 L 704 1045 L 779 804 L 808 320 L 778 249 L 705 152 L 641 109 L 533 74 Z"/>
    <path id="p099" data-bbox="88,74,716,1025" d="M 381 82 L 529 82 L 380 92 L 263 163 L 454 85 L 578 91 L 701 158 L 468 111 L 273 194 L 411 125 L 610 126 L 728 189 L 802 317 L 513 177 L 279 233 L 523 185 L 703 247 L 793 341 L 798 398 L 764 331 L 523 225 L 314 257 L 545 236 L 758 334 L 798 441 L 713 325 L 419 254 L 718 334 L 776 444 L 762 880 L 675 1042 L 599 1093 L 489 1089 L 286 981 L 210 772 L 159 799 L 111 706 L 127 573 L 163 625 L 123 680 L 186 740 L 132 570 L 100 552 L 102 631 L 111 530 L 239 698 L 247 538 L 232 689 L 200 609 L 260 496 L 238 398 L 285 288 L 157 499 L 232 440 L 157 533 L 237 471 L 182 558 L 254 494 L 194 619 L 126 528 L 106 374 L 222 200 L 104 355 L 116 270 L 219 187 L 285 275 L 228 182 Z"/>
    <path id="p098" data-bbox="530,81,7,3" d="M 530 82 L 531 81 L 535 81 L 536 82 L 535 83 L 531 83 Z"/>
    <path id="p097" data-bbox="540,82,4,3" d="M 540 83 L 541 82 L 542 82 L 543 83 L 542 84 L 541 84 Z"/>
    <path id="p096" data-bbox="363,96,140,23" d="M 502 98 L 500 96 L 462 96 L 461 97 L 450 97 L 449 98 L 432 99 L 425 101 L 412 102 L 411 103 L 407 103 L 406 104 L 385 108 L 382 110 L 369 113 L 363 116 L 363 118 L 371 118 L 387 113 L 391 113 L 392 112 L 396 112 L 417 107 L 436 105 L 437 104 L 455 103 L 456 102 L 475 102 L 476 101 L 495 102 L 496 101 L 501 101 Z"/>
    <path id="p095" data-bbox="305,138,464,116" d="M 305 194 L 308 198 L 364 167 L 417 153 L 488 144 L 556 146 L 606 156 L 661 177 L 716 208 L 742 228 L 764 253 L 768 252 L 756 233 L 741 219 L 688 183 L 605 149 L 558 140 L 484 138 L 412 148 L 357 164 Z"/>
    <path id="p094" data-bbox="700,158,3,3" d="M 700 159 L 701 158 L 702 159 L 701 160 Z"/>
    <path id="p093" data-bbox="701,159,3,3" d="M 701 160 L 702 159 L 703 160 L 702 161 Z"/>
    <path id="p092" data-bbox="703,160,3,3" d="M 703 161 L 704 160 L 705 161 L 704 162 Z"/>
    <path id="p091" data-bbox="704,161,3,3" d="M 704 162 L 705 161 L 706 162 L 705 163 Z"/>
    <path id="p090" data-bbox="291,194,487,130" d="M 291 253 L 293 257 L 327 230 L 377 208 L 430 200 L 473 202 L 526 212 L 587 232 L 636 255 L 726 309 L 777 322 L 711 272 L 637 237 L 638 242 L 722 287 L 752 313 L 597 230 L 536 209 L 471 196 L 429 194 L 372 204 L 323 227 Z"/>
    <path id="p089" data-bbox="141,223,73,106" d="M 213 223 L 207 224 L 187 239 L 174 253 L 162 271 L 160 272 L 160 274 L 156 280 L 150 293 L 144 310 L 144 313 L 141 322 L 142 328 L 145 328 L 145 325 L 147 322 L 147 316 L 157 289 L 164 276 L 174 261 L 191 242 L 202 233 L 213 226 Z"/>
    <path id="p088" data-bbox="159,237,81,171" d="M 239 237 L 235 237 L 226 242 L 213 254 L 197 274 L 180 304 L 167 337 L 162 357 L 159 377 L 160 407 L 162 407 L 163 405 L 163 386 L 168 353 L 181 314 L 194 288 L 208 267 L 219 255 L 221 255 L 221 253 L 227 247 L 236 242 Z"/>
    <path id="p087" data-bbox="374,241,252,56" d="M 374 245 L 376 248 L 429 248 L 494 259 L 537 269 L 547 274 L 556 274 L 625 296 L 623 290 L 588 277 L 489 252 L 419 241 L 381 242 Z"/>
    <path id="p086" data-bbox="137,267,130,190" d="M 265 267 L 259 268 L 243 280 L 220 306 L 202 337 L 168 408 L 137 452 L 138 456 L 163 449 L 190 431 L 233 374 L 231 369 L 198 414 L 179 433 L 160 445 L 148 449 L 146 447 L 152 442 L 173 409 L 220 315 L 232 298 L 247 283 L 264 272 Z"/>
    <path id="p085" data-bbox="755,365,3,4" d="M 755 366 L 756 365 L 757 366 L 757 367 L 756 368 L 755 367 Z"/>
    <path id="p084" data-bbox="756,367,40,135" d="M 757 367 L 761 371 L 761 373 L 764 375 L 769 382 L 769 384 L 775 391 L 775 393 L 778 397 L 778 399 L 780 401 L 780 403 L 784 410 L 792 436 L 793 446 L 794 447 L 795 465 L 794 466 L 793 482 L 787 501 L 786 500 L 787 492 L 786 491 L 786 483 L 785 482 L 785 469 L 784 468 L 784 460 L 783 459 L 780 438 L 772 412 L 772 409 L 765 391 L 765 388 L 756 369 Z"/>
    <path id="p083" data-bbox="146,407,77,72" d="M 222 407 L 220 407 L 219 409 L 217 410 L 217 411 L 213 415 L 210 420 L 197 434 L 197 435 L 177 455 L 176 455 L 171 460 L 170 460 L 167 463 L 155 471 L 153 471 L 151 473 L 148 474 L 146 476 L 146 478 L 152 478 L 154 476 L 159 474 L 161 472 L 164 471 L 170 467 L 180 458 L 185 455 L 185 454 L 188 451 L 189 451 L 190 449 L 192 448 L 192 447 L 194 446 L 196 443 L 197 443 L 197 442 L 216 420 L 222 411 Z"/>
    <path id="p082" data-bbox="440,463,275,27" d="M 714 469 L 706 466 L 678 463 L 604 466 L 444 484 L 440 486 L 440 489 L 590 473 L 657 469 L 713 472 Z"/>

    <!-- EYES GROUP (starter set: upper lid/brow clusters). Add more paths later if needed. -->
    <g id="eyes">
      <path id="p081" data-bbox="624,510,100,28" d="M 723 512 L 719 510 L 698 511 L 697 512 L 685 513 L 684 514 L 680 514 L 679 515 L 676 515 L 675 516 L 664 518 L 663 519 L 658 520 L 655 522 L 652 522 L 649 524 L 644 525 L 641 527 L 634 529 L 629 532 L 627 532 L 624 534 L 624 537 L 633 536 L 636 534 L 638 534 L 641 532 L 646 531 L 649 529 L 651 529 L 658 526 L 661 526 L 668 523 L 672 523 L 676 521 L 684 520 L 685 519 L 689 519 L 690 518 L 695 518 L 696 517 L 704 517 L 705 516 L 712 516 L 713 515 L 722 515 L 723 514 Z"/>
      <path id="p080" data-bbox="375,520,152,21" d="M 375 523 L 375 525 L 377 526 L 418 526 L 419 527 L 439 528 L 447 530 L 456 530 L 471 533 L 478 533 L 498 537 L 513 538 L 519 540 L 524 540 L 526 538 L 526 536 L 510 532 L 503 532 L 485 528 L 478 528 L 477 527 L 455 525 L 447 523 L 439 523 L 438 522 L 429 522 L 428 521 L 380 520 Z"/>
    </g>

    <path id="p079" data-bbox="605,572,169,255" d="M 764 574 L 734 574 L 672 596 L 633 619 L 607 652 L 605 668 L 648 801 L 648 826 L 654 819 L 653 799 L 613 679 L 612 653 L 630 632 L 678 618 L 641 637 L 625 657 L 623 668 L 701 673 L 725 663 L 738 647 L 751 658 L 738 634 L 756 644 L 748 631 L 726 620 L 698 616 L 752 606 L 759 610 L 762 626 L 767 629 L 773 592 Z"/>
    <path id="p078" data-bbox="597,586,14,46" d="M 598 586 L 597 587 L 597 593 L 598 594 L 598 600 L 599 601 L 599 605 L 600 606 L 600 611 L 601 612 L 601 615 L 602 616 L 602 619 L 603 620 L 603 623 L 604 624 L 604 627 L 605 628 L 605 630 L 606 631 L 609 631 L 610 630 L 610 628 L 609 627 L 609 624 L 608 623 L 608 621 L 607 620 L 607 616 L 606 615 L 606 611 L 605 610 L 605 607 L 604 606 L 604 601 L 603 600 L 603 597 L 602 596 L 602 592 L 601 591 L 601 586 Z"/>
    <path id="p077" data-bbox="309,588,218,75" d="M 309 655 L 313 655 L 334 626 L 352 611 L 354 612 L 338 627 L 327 643 L 319 662 L 321 662 L 344 629 L 350 631 L 358 628 L 400 623 L 427 623 L 475 629 L 495 628 L 510 625 L 525 618 L 525 613 L 521 612 L 526 609 L 526 606 L 441 591 L 415 588 L 381 589 L 358 598 L 319 628 L 319 631 L 324 632 Z"/>
    <path id="p076" data-bbox="741,588,9,5" d="M 741 591 L 741 590 L 742 589 L 744 589 L 745 588 L 748 588 L 749 589 L 747 591 L 743 591 L 742 592 Z"/>
    <path id="p075" data-bbox="737,591,6,4" d="M 737 593 L 739 591 L 741 591 L 742 592 L 741 593 L 740 593 L 739 594 L 738 594 Z"/>
    <path id="p074" data-bbox="382,594,24,8" d="M 405 595 L 404 596 L 399 596 L 398 597 L 393 597 L 392 598 L 390 598 L 389 599 L 388 599 L 387 600 L 386 600 L 385 601 L 383 601 L 382 600 L 383 599 L 384 599 L 385 598 L 386 598 L 387 597 L 388 597 L 389 596 L 390 596 L 391 595 L 396 595 L 397 594 L 404 594 Z"/>
    <path id="p073" data-bbox="697,595,3,3" d="M 697 596 L 698 595 L 699 596 L 698 597 Z"/>
    <path id="p072" data-bbox="689,596,9,6" d="M 697 597 L 696 598 L 695 598 L 693 600 L 692 600 L 691 601 L 690 601 L 689 600 L 689 599 L 690 598 L 692 598 L 694 596 L 696 596 Z"/>
    <path id="p071" data-bbox="427,598,5,3" d="M 427 599 L 428 598 L 430 598 L 431 599 L 430 600 L 428 600 Z"/>
    <path id="p070" data-bbox="422,599,6,3" d="M 422 600 L 423 599 L 426 599 L 427 600 L 426 601 L 423 601 Z"/>
    <path id="p069" data-bbox="380,600,4,3" d="M 380 601 L 381 600 L 382 600 L 383 601 L 382 602 L 381 602 Z"/>
    <path id="p068" data-bbox="686,600,5,3" d="M 686 601 L 687 600 L 689 600 L 690 601 L 689 602 L 687 602 Z"/>
    <path id="p067" data-bbox="377,601,5,4" d="M 377 603 L 379 601 L 380 601 L 381 602 L 379 604 L 378 604 Z"/>
    <path id="p066" data-bbox="675,601,13,7" d="M 687 602 L 685 604 L 684 604 L 683 605 L 682 605 L 681 606 L 679 606 L 678 607 L 676 607 L 675 606 L 676 605 L 677 605 L 678 604 L 680 604 L 682 602 L 683 602 L 684 601 L 686 601 Z"/>
    <path id="p065" data-bbox="364,602,4,3" d="M 364 603 L 365 602 L 366 602 L 367 603 L 366 604 L 365 604 Z"/>
    <path id="p064" data-bbox="363,603,3,3" d="M 363 604 L 364 603 L 365 604 L 364 605 Z"/>
    <path id="p063" data-bbox="374,603,5,3" d="M 374 604 L 375 603 L 377 603 L 378 604 L 377 605 L 375 605 Z"/>
    <path id="p062" data-bbox="440,603,28,5" d="M 440 606 L 441 605 L 442 605 L 443 604 L 447 604 L 448 603 L 466 603 L 467 604 L 466 605 L 449 605 L 448 606 L 444 606 L 443 607 L 441 607 Z"/>
    <path id="p061" data-bbox="361,604,4,3" d="M 361 605 L 362 604 L 363 604 L 364 605 L 363 606 L 362 606 Z"/>
    <path id="p060" data-bbox="373,604,3,3" d="M 373 605 L 374 604 L 375 605 L 374 606 Z"/>
    <path id="p059" data-bbox="359,605,3,4" d="M 359 606 L 360 605 L 361 606 L 361 607 L 360 608 L 359 607 Z"/>
    <path id="p058" data-bbox="672,606,5,4" d="M 672 608 L 674 606 L 675 606 L 676 607 L 674 609 L 673 609 Z"/>
    <path id="p057" data-bbox="355,607,5,4" d="M 355 609 L 357 607 L 358 607 L 359 608 L 357 610 L 356 610 Z"/>
    <path id="p056" data-bbox="491,607,4,3" d="M 491 608 L 492 607 L 493 607 L 494 608 L 493 609 L 492 609 Z"/>
    <path id="p055" data-bbox="494,607,7,4" d="M 494 609 L 495 608 L 496 608 L 497 607 L 499 607 L 500 608 L 500 609 L 499 610 L 495 610 Z"/>
    <path id="p054" data-bbox="670,608,4,3" d="M 670 609 L 671 608 L 672 608 L 673 609 L 672 610 L 671 610 Z"/>
    <path id="p053" data-bbox="354,609,3,3" d="M 354 610 L 355 609 L 356 610 L 355 611 Z"/>
    <path id="p052" data-bbox="353,610,3,3" d="M 353 611 L 354 610 L 355 611 L 354 612 Z"/>
    <path id="p051" data-bbox="391,610,7,3" d="M 391 611 L 392 610 L 396 610 L 397 611 L 396 612 L 392 612 Z"/>
    <path id="p050" data-bbox="666,610,3,3" d="M 666 611 L 667 610 L 668 611 L 667 612 Z"/>
    <path id="p049" data-bbox="384,611,9,4" d="M 384 613 L 385 612 L 387 612 L 388 611 L 391 611 L 392 612 L 391 613 L 389 613 L 388 614 L 385 614 Z"/>
    <path id="p048" data-bbox="510,612,12,6" d="M 521 613 L 520 614 L 519 614 L 518 615 L 517 615 L 516 616 L 515 616 L 514 617 L 511 617 L 510 616 L 512 614 L 513 614 L 514 613 L 516 613 L 517 612 L 520 612 Z"/>
    <path id="p047" data-bbox="381,613,5,3" d="M 381 614 L 382 613 L 384 613 L 385 614 L 384 615 L 382 615 Z"/>
    <path id="p046" data-bbox="378,614,4,3" d="M 378 615 L 379 614 L 380 614 L 381 615 L 380 616 L 379 616 Z"/>
    <path id="p045" data-bbox="377,615,3,3" d="M 377 616 L 378 615 L 379 616 L 378 617 Z"/>
    <path id="p044" data-bbox="687,615,10,4" d="M 696 616 L 694 618 L 688 618 L 687 617 L 688 616 L 693 616 L 694 615 L 695 615 Z"/>
    <path id="p043" data-bbox="372,616,5,3" d="M 372 617 L 373 616 L 375 616 L 376 617 L 375 618 L 373 618 Z"/>
    <path id="p042" data-bbox="496,616,16,5" d="M 511 617 L 510 618 L 508 618 L 507 619 L 505 619 L 504 620 L 497 620 L 496 619 L 497 618 L 500 618 L 501 617 L 505 617 L 506 616 L 510 616 Z"/>
    <path id="p041" data-bbox="369,617,3,3" d="M 369 618 L 370 617 L 371 618 L 370 619 Z"/>
    <path id="p040" data-bbox="680,617,8,3" d="M 680 618 L 681 617 L 686 617 L 687 618 L 686 619 L 681 619 Z"/>
    <path id="p039" data-bbox="688,625,46,44" d="M 732 634 L 732 637 L 733 638 L 733 640 L 732 641 L 732 645 L 731 646 L 731 648 L 727 652 L 727 653 L 726 654 L 725 654 L 725 655 L 723 657 L 722 657 L 717 661 L 716 661 L 709 665 L 707 665 L 706 666 L 703 666 L 702 667 L 698 667 L 697 668 L 689 668 L 688 667 L 689 666 L 692 666 L 693 665 L 695 665 L 696 664 L 699 663 L 703 659 L 704 659 L 705 658 L 705 657 L 707 655 L 707 653 L 709 650 L 709 647 L 710 646 L 710 637 L 709 636 L 709 633 L 707 630 L 707 627 L 706 626 L 707 625 L 714 625 L 715 626 L 720 626 L 721 627 L 723 627 L 725 629 L 728 630 Z"/>
    <path id="p038" data-bbox="323,630,3,3" d="M 323 631 L 324 630 L 325 631 L 324 632 Z"/>
    <path id="p037" data-bbox="126,631,56,107" d="M 165 631 L 169 635 L 174 645 L 174 647 L 176 649 L 179 658 L 179 660 L 173 666 L 170 671 L 167 679 L 167 702 L 171 711 L 171 714 L 173 716 L 173 718 L 175 720 L 181 733 L 181 736 L 180 737 L 178 737 L 177 735 L 175 735 L 168 728 L 163 719 L 160 709 L 155 703 L 144 700 L 137 695 L 131 685 L 126 669 L 127 658 L 129 654 L 134 649 L 154 639 Z"/>
    <path id="p036" data-bbox="296,632,200,69" d="M 493 649 L 479 641 L 444 632 L 411 637 L 388 645 L 361 662 L 339 672 L 329 674 L 304 672 L 303 676 L 316 679 L 335 679 L 360 672 L 349 683 L 339 688 L 298 695 L 296 700 L 308 700 L 341 693 L 354 686 L 367 673 L 371 672 L 380 679 L 404 689 L 434 690 L 444 688 L 467 678 L 494 674 L 495 670 L 490 662 L 477 649 L 481 648 L 488 652 L 493 652 Z"/>
    <path id="p035" data-bbox="535,632,65,13" d="M 599 636 L 598 636 L 595 634 L 590 634 L 589 633 L 583 633 L 582 634 L 580 632 L 578 632 L 578 633 L 577 634 L 564 634 L 563 635 L 556 635 L 555 636 L 551 636 L 550 637 L 546 637 L 545 638 L 542 638 L 541 639 L 539 639 L 538 640 L 535 640 L 535 644 L 541 644 L 542 643 L 546 643 L 547 642 L 552 642 L 553 641 L 560 641 L 561 640 L 573 640 L 574 639 L 599 639 Z"/>
    <path id="p034" data-bbox="648,633,25,34" d="M 657 633 L 658 634 L 658 635 L 657 636 L 657 639 L 656 640 L 656 644 L 657 645 L 657 650 L 659 652 L 659 654 L 661 656 L 661 657 L 665 661 L 666 661 L 669 664 L 671 664 L 672 665 L 671 666 L 667 666 L 666 665 L 662 665 L 661 664 L 660 664 L 659 663 L 657 663 L 656 662 L 655 662 L 654 661 L 654 659 L 653 659 L 652 658 L 652 656 L 651 655 L 651 654 L 650 653 L 650 651 L 649 650 L 649 644 L 648 643 L 648 640 L 650 638 L 651 638 L 651 637 L 652 636 L 653 636 L 655 634 L 656 634 Z"/>
    <path id="p033" data-bbox="678,637,6,4" d="M 678 639 L 679 638 L 680 638 L 681 637 L 682 637 L 683 638 L 683 639 L 682 640 L 679 640 Z"/>
    <path id="p031" data-bbox="677,639,3,3" d="M 677 640 L 678 639 L 679 640 L 678 641 Z"/>
    <path id="p030" data-bbox="432,640,36,44" d="M 458 643 L 461 646 L 462 646 L 466 651 L 466 656 L 467 657 L 466 658 L 466 662 L 465 663 L 465 665 L 464 666 L 464 668 L 462 670 L 462 671 L 455 678 L 453 678 L 450 680 L 448 680 L 447 681 L 445 681 L 444 682 L 440 682 L 439 683 L 433 683 L 432 682 L 434 680 L 435 680 L 437 678 L 438 678 L 438 677 L 442 673 L 442 672 L 444 670 L 444 668 L 445 667 L 445 665 L 446 664 L 446 654 L 445 653 L 445 647 L 440 642 L 440 641 L 441 640 L 444 640 L 445 641 L 445 642 L 447 642 L 448 641 L 453 641 L 456 643 Z"/>
    <path id="p032" data-bbox="505,640,34,38" d="M 505 640 L 505 642 L 507 644 L 508 644 L 510 646 L 511 646 L 513 648 L 514 648 L 515 649 L 515 650 L 517 650 L 523 656 L 523 657 L 527 661 L 527 662 L 529 664 L 529 665 L 530 666 L 530 667 L 531 668 L 531 669 L 533 672 L 533 674 L 534 675 L 534 676 L 535 677 L 537 677 L 538 676 L 538 672 L 536 669 L 536 667 L 535 666 L 535 665 L 534 664 L 534 663 L 533 662 L 533 661 L 532 660 L 532 659 L 530 657 L 530 656 L 528 654 L 528 653 L 527 653 L 526 652 L 526 651 L 525 650 L 524 650 L 518 644 L 517 644 L 516 643 L 515 643 L 514 642 L 513 642 L 510 640 Z"/>
    <path id="p029" data-bbox="676,640,3,3" d="M 676 641 L 677 640 L 678 641 L 677 642 Z"/>
    <path id="p028" data-bbox="472,645,3,3" d="M 472 646 L 473 645 L 474 646 L 473 647 Z"/>
    <path id="p027" data-bbox="629,645,20,19" d="M 642 645 L 643 646 L 643 648 L 644 649 L 644 652 L 645 653 L 645 655 L 646 656 L 646 658 L 647 659 L 647 660 L 648 661 L 648 662 L 647 663 L 646 662 L 638 662 L 637 661 L 635 661 L 634 662 L 630 662 L 629 661 L 630 660 L 630 659 L 633 656 L 633 655 L 634 654 L 634 653 L 637 650 L 637 649 L 641 645 Z"/>
    <path id="p026" data-bbox="374,651,36,33" d="M 374 665 L 375 664 L 376 664 L 376 662 L 380 658 L 381 658 L 381 657 L 383 655 L 384 655 L 385 654 L 386 654 L 388 652 L 389 652 L 390 651 L 391 651 L 392 652 L 391 653 L 391 663 L 392 664 L 392 668 L 393 669 L 393 672 L 395 672 L 397 674 L 397 675 L 399 677 L 400 677 L 401 678 L 402 678 L 403 679 L 404 679 L 406 681 L 408 681 L 409 682 L 408 683 L 405 683 L 404 682 L 400 682 L 399 681 L 397 681 L 394 679 L 392 679 L 391 678 L 390 678 L 389 677 L 388 677 L 387 676 L 386 676 L 384 674 L 382 674 L 379 671 L 378 671 L 376 669 L 376 668 Z"/>
    <path id="p025" data-bbox="417,652,8,6" d="M 424 653 L 424 654 L 421 657 L 418 657 L 417 656 L 417 655 L 418 654 L 419 654 L 420 653 L 421 653 L 422 652 L 423 652 Z"/>
    <path id="p024" data-bbox="469,653,21,19" d="M 472 654 L 473 653 L 478 658 L 479 658 L 481 660 L 481 661 L 483 663 L 483 664 L 484 664 L 489 669 L 488 670 L 487 670 L 486 671 L 470 671 L 469 670 L 469 669 L 470 668 L 470 667 L 471 666 L 471 665 L 472 664 Z"/>
    <path id="p023" data-bbox="671,665,6,3" d="M 671 666 L 672 665 L 675 665 L 676 666 L 675 667 L 672 667 Z"/>
    <path id="p022" data-bbox="676,666,4,3" d="M 676 667 L 677 666 L 678 666 L 679 667 L 678 668 L 677 668 Z"/>
    <path id="p021" data-bbox="359,670,4,3" d="M 359 671 L 360 670 L 361 670 L 362 671 L 361 672 L 360 672 Z"/>
    <path id="p020" data-bbox="468,670,3,3" d="M 468 671 L 469 670 L 470 671 L 469 672 Z"/>
    <path id="p019" data-bbox="635,684,108,24" d="M 635 685 L 635 687 L 637 690 L 644 695 L 652 699 L 654 699 L 661 702 L 664 702 L 667 704 L 678 705 L 679 706 L 689 706 L 690 707 L 695 707 L 696 706 L 697 707 L 701 707 L 702 706 L 708 706 L 709 705 L 713 705 L 714 704 L 720 703 L 735 695 L 742 688 L 742 685 L 741 684 L 739 684 L 729 693 L 718 698 L 712 699 L 711 700 L 704 700 L 703 701 L 685 701 L 684 700 L 671 699 L 667 697 L 660 696 L 642 688 L 638 684 L 636 684 Z"/>
    <path id="p018" data-bbox="359,689,124,31" d="M 482 689 L 480 689 L 454 702 L 433 709 L 420 711 L 419 712 L 414 712 L 413 713 L 393 713 L 392 712 L 382 711 L 378 709 L 375 709 L 362 704 L 360 704 L 359 707 L 373 714 L 385 716 L 386 717 L 400 718 L 401 719 L 417 718 L 418 717 L 422 717 L 423 716 L 434 714 L 438 712 L 441 712 L 449 708 L 459 705 L 468 700 L 472 699 L 482 692 Z"/>
    <path id="p017" data-bbox="439,696,60,39" d="M 498 696 L 496 696 L 495 697 L 494 697 L 492 699 L 491 699 L 488 702 L 487 702 L 479 709 L 478 709 L 476 711 L 475 711 L 473 713 L 472 713 L 469 716 L 466 717 L 464 719 L 463 719 L 462 720 L 457 722 L 455 724 L 454 724 L 453 725 L 452 725 L 445 729 L 443 729 L 442 730 L 439 731 L 439 734 L 444 734 L 445 733 L 447 733 L 454 729 L 456 729 L 457 728 L 458 728 L 460 726 L 463 725 L 465 723 L 466 723 L 467 722 L 468 722 L 470 720 L 473 719 L 475 717 L 476 717 L 478 715 L 479 715 L 482 712 L 483 712 L 491 705 L 492 705 L 498 699 Z"/>
    <path id="p016" data-bbox="315,705,41,19" d="M 355 705 L 353 705 L 352 706 L 348 706 L 347 707 L 345 707 L 344 708 L 342 708 L 341 709 L 339 709 L 338 710 L 337 710 L 336 711 L 334 711 L 333 712 L 331 712 L 330 713 L 328 713 L 327 714 L 326 714 L 325 715 L 324 715 L 323 716 L 322 716 L 321 717 L 320 717 L 319 718 L 318 718 L 317 719 L 316 719 L 315 720 L 315 723 L 318 723 L 319 722 L 320 722 L 321 721 L 322 721 L 323 720 L 325 720 L 326 719 L 328 719 L 329 718 L 330 718 L 331 717 L 333 717 L 334 716 L 336 716 L 337 715 L 339 715 L 340 714 L 342 714 L 343 713 L 344 713 L 345 712 L 347 712 L 348 711 L 349 711 L 350 710 L 352 710 L 353 709 L 355 709 Z"/>
    <path id="p015" data-bbox="669,720,55,17" d="M 669 722 L 669 724 L 671 724 L 674 726 L 676 726 L 677 727 L 680 727 L 681 728 L 683 728 L 684 729 L 686 729 L 687 730 L 690 730 L 691 731 L 693 731 L 694 732 L 698 732 L 699 733 L 702 733 L 703 734 L 707 734 L 708 735 L 714 735 L 715 736 L 720 736 L 723 734 L 723 732 L 722 732 L 721 731 L 716 731 L 715 730 L 710 730 L 709 729 L 705 729 L 704 728 L 701 728 L 700 727 L 696 727 L 695 726 L 693 726 L 692 725 L 688 725 L 687 724 L 685 724 L 684 723 L 681 723 L 680 722 L 677 722 L 674 720 L 670 720 L 670 721 Z"/>
    <path id="p014" data-bbox="335,723,32,17" d="M 366 724 L 365 723 L 362 723 L 361 724 L 358 724 L 357 725 L 355 725 L 354 726 L 352 726 L 350 728 L 348 728 L 347 729 L 346 729 L 345 730 L 344 730 L 342 732 L 341 732 L 340 733 L 339 733 L 338 734 L 337 734 L 335 736 L 335 739 L 338 739 L 339 738 L 340 738 L 341 737 L 342 737 L 343 736 L 344 736 L 346 734 L 347 734 L 348 733 L 349 733 L 350 732 L 352 732 L 353 731 L 354 731 L 355 730 L 357 730 L 358 729 L 360 729 L 361 728 L 362 728 L 363 727 L 366 727 Z"/>
    <path id="p013" data-bbox="401,761,316,159" d="M 716 873 L 698 828 L 645 761 L 641 763 L 653 779 L 661 803 L 659 823 L 633 853 L 599 868 L 581 866 L 540 836 L 501 826 L 500 802 L 505 783 L 514 774 L 510 770 L 465 818 L 401 919 L 409 914 L 497 788 L 494 823 L 501 834 L 537 841 L 586 874 L 611 871 L 643 852 L 664 825 L 666 795 L 705 853 L 711 877 L 707 902 L 715 893 Z"/>
    <path id="p012" data-bbox="497,786,3,3" d="M 497 787 L 498 786 L 499 787 L 498 788 Z"/>
    <path id="p011" data-bbox="663,792,3,3" d="M 663 793 L 664 792 L 665 793 L 664 794 Z"/>

    <!-- MOUTH GROUP (lip lines). -->
    <g id="mouth">
      <path id="p010" data-bbox="432,905,262,43" d="M 693 909 L 686 905 L 677 905 L 589 926 L 538 922 L 501 924 L 442 922 L 433 924 L 432 928 L 453 928 L 535 944 L 581 947 L 613 941 L 646 928 L 678 911 L 692 913 Z"/>
      <path id="p006" data-bbox="487,917,168,25" d="M 654 918 L 640 924 L 638 926 L 632 927 L 628 930 L 607 937 L 587 941 L 559 941 L 519 936 L 507 933 L 500 933 L 498 931 L 494 932 L 487 930 L 488 929 L 511 929 L 512 928 L 545 928 L 567 931 L 592 931 L 609 928 L 612 926 L 641 919 L 646 919 L 651 917 Z"/>
      <path id="p005" data-bbox="524,948,122,18" d="M 645 948 L 642 948 L 635 951 L 632 951 L 617 956 L 613 956 L 607 958 L 600 958 L 599 959 L 541 959 L 540 958 L 524 957 L 524 961 L 530 962 L 531 963 L 549 964 L 550 965 L 595 965 L 596 964 L 608 963 L 609 962 L 614 962 L 623 959 L 627 959 L 630 957 L 632 957 L 635 955 L 644 952 L 645 951 Z"/>
    </g>

    <path id="p009" data-bbox="226,911,3,4" d="M 226 912 L 227 911 L 228 912 L 228 913 L 227 914 L 226 913 Z"/>
    <path id="p008" data-bbox="225,914,428,296" d="M 226 917 L 229 915 L 237 936 L 253 959 L 287 989 L 380 1044 L 475 1090 L 513 1101 L 575 1103 L 619 1093 L 652 1076 L 615 1131 L 551 1207 L 533 1209 L 278 1038 L 254 1013 L 236 984 L 226 956 Z"/>
    <path id="p007" data-bbox="654,916,3,3" d="M 654 917 L 655 916 L 656 917 L 655 918 Z"/>
    <path id="p004" data-bbox="222,968,303,417" d="M 224 968 L 244 1009 L 278 1046 L 524 1211 L 484 1239 L 389 1343 L 343 1384 L 330 1381 L 316 1359 L 246 1153 L 224 1048 Z"/>
    <path id="p003" data-bbox="508,991,121,25" d="M 628 998 L 621 994 L 606 992 L 605 991 L 572 991 L 571 992 L 564 992 L 563 993 L 557 993 L 556 994 L 545 996 L 530 1001 L 508 1012 L 508 1015 L 515 1014 L 522 1010 L 524 1010 L 527 1008 L 544 1002 L 556 1000 L 557 999 L 561 999 L 562 998 L 568 998 L 569 997 L 599 996 L 600 997 L 614 998 L 623 1001 L 627 1001 Z"/>
    <path id="p002" data-bbox="559,1022,173,326" d="M 695 1022 L 721 1151 L 729 1210 L 731 1290 L 726 1347 L 714 1340 L 689 1315 L 636 1254 L 611 1230 L 583 1213 L 559 1206 L 616 1139 Z"/>
    <path id="p001" data-bbox="651,1074,3,3" d="M 651 1075 L 652 1074 L 653 1075 L 652 1076 Z"/>
    <path id="p000" data-bbox="474,1212,137,167" d="M 600 1229 L 610 1238 L 592 1280 L 582 1309 L 575 1345 L 575 1369 L 572 1370 L 564 1367 L 547 1365 L 532 1366 L 509 1372 L 497 1378 L 496 1338 L 492 1310 L 474 1256 L 508 1226 L 521 1218 L 533 1214 L 550 1212 L 564 1213 L 578 1217 Z"/>
  </g>
</svg>
