<?xml version="1.0" encoding="UTF-8" standalone="no"?>
<!-- Created with Inkscape (http://www.inkscape.org/) -->
<svg
   xmlns:dc="http://purl.org/dc/elements/1.1/"
   xmlns:cc="http://web.resource.org/cc/"
   xmlns:rdf="http://www.w3.org/1999/02/22-rdf-syntax-ns#"
   xmlns:svg="http://www.w3.org/2000/svg"
   xmlns="http://www.w3.org/2000/svg"
   xmlns:sodipodi="http://sodipodi.sourceforge.net/DTD/sodipodi-0.dtd"
   xmlns:inkscape="http://www.inkscape.org/namespaces/inkscape"
   width="683.67999"
   height="737.74768"
   id="svg2"
   sodipodi:version="0.32"
   inkscape:version="0.44.1"
   sodipodi:docbase="C:\Documents\"
   sodipodi:docname="Canal of the Pharaohs Map-en.svg"
   version="1.0">
  <defs
     id="defs4" />
  <sodipodi:namedview
     id="base"
     pagecolor="#ffffff"
     bordercolor="#666666"
     borderopacity="1.0"
     inkscape:pageopacity="0.0"
     inkscape:pageshadow="2"
     inkscape:zoom="0.5"
     inkscape:cx="117.59782"
     inkscape:cy="466.47967"
     inkscape:document-units="px"
     inkscape:current-layer="layer1"
     inkscape:window-width="1280"
     inkscape:window-height="751"
     inkscape:window-x="-4"
     inkscape:window-y="-4" />
  <metadata
     id="metadata7">
    <rdf:RDF>
      <cc:Work
         rdf:about="">
        <dc:format>image/svg+xml</dc:format>
        <dc:type
           rdf:resource="http://purl.org/dc/dcmitype/StillImage" />
      </cc:Work>
    </rdf:RDF>
  </metadata>
  <g
     inkscape:label="Calque 1"
     inkscape:groupmode="layer"
     id="layer1"
     transform="translate(-37.15473,-155.7145)">
    <rect
       style="opacity:1;fill:#f4e2ba;fill-opacity:1;fill-rule:nonzero;stroke:none;stroke-width:3;stroke-linecap:round;stroke-linejoin:miter;stroke-miterlimit:4;stroke-dasharray:none;stroke-opacity:1"
       id="rect1900"
       width="682.17963"
       height="736"
       x="37.998268"
       y="155.71451" />
    <path
       style="fill:none;fill-rule:evenodd;stroke:#e90000;stroke-width:3;stroke-linecap:butt;stroke-linejoin:miter;stroke-miterlimit:4;stroke-dasharray:none;stroke-opacity:1"
       d="M 161.5739,552.43768 C 173.85988,554.73578 193.39248,560.67145 212.13203,562.33718 C 224.06446,563.39784 231.93102,560.92297 237.58788,563.04429 C 249.41773,567.48049 253.72317,574.1235 257.03332,575.41866 C 261.3803,577.11949 272.58967,575.77221 281.4285,576.83287 C 290.26733,577.89353 293.60058,581.04344 299.10616,581.07551 C 323.22801,581.216 363.33872,581.44727 379.00924,581.07551 C 389.72872,580.81282 392.26749,575.24187 406.23285,575.0651 C 418.93272,574.90435 418.69561,574.09283 429.21382,573.29734 C 439.73203,572.50185 440.08558,570.11535 445.47727,570.82246 C 457.80683,572.43946 462.00589,572.94379 477.65063,584.61105 C 493.29537,596.27831 498.6025,605.96258 508.05622,617.49151 C 511.68014,621.91093 510.97304,629.42394 511.94531,633.40141 C 512.91758,637.37889 511.94531,633.40141 511.94531,633.40141"
       id="path20542"
       sodipodi:nodetypes="csssssssssssss" />
    <path
       style="fill:none;fill-opacity:1;fill-rule:evenodd;stroke:#e90000;stroke-width:3;stroke-linecap:butt;stroke-linejoin:miter;stroke-miterlimit:4;stroke-dasharray:none;stroke-opacity:1"
       d="M 596.79812,821.84537 C 595.4723,817.51434 593.17419,816.80724 591.84837,806.28903 C 590.52255,795.77082 590.169,788.63949 591.84837,781.54029 C 593.70189,773.70494 598.65427,775.26471 601.04076,773.76211 C 603.42724,772.25951 601.04076,773.76211 601.04076,773.76211"
       id="path21429"
       sodipodi:nodetypes="cssss" />
    <path
       style="opacity:1;fill:#daf0fd;fill-opacity:1;fill-rule:evenodd;stroke:#27aaea;stroke-width:1;stroke-linecap:butt;stroke-linejoin:miter;stroke-miterlimit:4;stroke-dasharray:none;stroke-opacity:1"
       d="M 511.94531,633.04786 C 508.94011,633.40141 511.76853,639.76538 509.11688,644.36157 C 506.46523,648.95776 504.69747,647.01322 501.33871,651.43264 C 497.97995,655.85206 496.07845,656.4352 495.68185,662.03924 C 495.44441,665.39432 496.42297,666.50675 498.01396,671.10295 C 499.60495,675.69915 501.51009,675.69441 502.04582,680.42402 C 502.28326,682.52021 499.87856,690.70066 501.33871,691.73772 C 512.72817,699.82699 535.59555,704.83884 545.88644,715.07225 C 548.40725,717.57898 548.649,723.62555 549.42197,724.26464 C 554.16698,728.1878 557.94092,728.71707 563.35332,729.6286 C 568.78162,730.54281 569.29418,730.36604 569.88517,729.29649 C 571.1003,727.0974 569.04418,724.61819 571.34228,722.85042 C 573.64038,721.08265 574.87781,719.31489 579.82756,722.85042 C 584.77731,726.38595 587.60573,730.6286 591.14127,736.99256 C 594.6768,743.35652 591.6716,743.88685 593.9697,748.30627 C 596.2678,752.72569 599.53535,747.46648 600.33366,754.67023 C 600.42465,755.4913 599.36998,770.88068 600.33366,776.59054 C 600.5711,777.99739 602.86464,778.17771 605.28341,777.29764 C 606.88328,776.71553 610.12072,776.46338 610.23315,773.76211 C 610.65532,763.61892 609.60441,743.79573 608.10815,736.74256 C 606.13639,727.44797 597.15688,726.5465 596.79812,724.26464 C 595.77633,717.76562 597.75217,718.73754 595.42312,715.24014 C 593.83213,712.85105 590.78771,714.36514 584.0702,709.41539 C 577.35269,704.46564 568.57981,698.1271 563.56411,688.9093 C 561.40726,684.94547 564.50128,677.59343 561.44278,674.06005 C 552.5335,663.76747 538.79065,655.14728 530.33009,645.77578 C 526.36626,641.38517 527.282,639.69215 527.08745,639.24761 C 525.98489,636.72831 523.78935,636.76017 522.55191,637.99761 C 521.31447,639.23505 523.78935,644.1848 521.1377,642.94736 C 518.48605,641.70992 514.95052,632.69431 511.94531,633.04786 z "
       id="path4705"
       sodipodi:nodetypes="csssssssssssssssssssssssssssss" />
    <path
       style="fill:#daf0fd;fill-opacity:1;fill-rule:evenodd;stroke:#27aaea;stroke-width:1;stroke-linecap:butt;stroke-linejoin:miter;stroke-miterlimit:4;stroke-dasharray:none;stroke-opacity:1"
       d="M 568.36744,892.16964 C 568.39433,892.16979 568.3125,885.23718 569.75,880.36218 C 571.1875,875.48718 573.5625,878.23718 575,874.86218 C 576.4375,871.48718 572.0625,871.42468 575.5,866.86218 C 578.9375,862.29968 584.63719,860.40862 588.75,856.61218 C 590.375,855.11218 594,858.29968 595,855.86218 C 596.71917,851.6717 597.48456,845.42059 597.25,840.61218 C 597.125,838.04968 594.625,838.98718 594.5,836.61218 C 594.23974,831.6673 591.4375,821.54968 595.75,820.86218 C 600.0625,820.17468 609,828.79968 611.75,833.86218 C 614.5,838.92468 605.8125,836.54968 606.75,841.11218 C 607.6875,845.67468 615,847.11218 615.5,852.11218 C 616,857.11218 609.625,856.79968 608.75,861.11218 C 607.875,865.42468 611,860.86218 612,869.36218 C 613,877.86218 613.75532,892.41888 613.89421,892.41964 L 568.36744,892.16964 z "
       id="path5592"
       sodipodi:nodetypes="csssssssssssssss" />
    <path
       style="fill:#daf0fd;fill-opacity:1;fill-rule:evenodd;stroke:#27aaea;stroke-width:1;stroke-linecap:butt;stroke-linejoin:miter;stroke-miterlimit:4;stroke-dasharray:none;stroke-opacity:1"
       d="M 492.49988,423.56748 C 493.3213,419.78222 502.59474,425.105 514.77374,424.27458 C 517.57136,424.08383 518.39766,428.29626 519.90026,432.05276 C 521.40286,435.80926 521.0935,436.64895 519.36993,439.3006 C 517.64636,441.95225 515.65762,440.14029 514.59696,443.72002 C 513.5363,447.29975 513.22694,450.03979 516.5415,453.61952 C 519.85606,457.19925 525.55711,454.90114 527.85521,458.03893 C 530.15331,461.17671 527.23649,461.04413 525.73389,466.17066 C 524.23129,471.29719 525.6455,477.83792 521.8448,478.54503 C 518.0441,479.25214 517.86733,468.24779 512.12209,464.22612 C 506.37685,460.20445 501.0809,468.25441 498.86383,462.45835 C 495.77024,454.37082 495.39668,455.41403 495.3283,449.37687 C 495.14966,433.14318 491.48728,428.23369 492.49988,423.56748 z "
       id="path6479"
       sodipodi:nodetypes="cssssssssssss" />
    <path
       style="fill:none;fill-rule:evenodd;stroke:#27aaea;stroke-width:2;stroke-linecap:butt;stroke-linejoin:miter;stroke-miterlimit:4;stroke-dasharray:none;stroke-opacity:1"
       d="M 49.151039,892.1616 C 50.026039,886.1616 47.375,879.61218 50,870.86218 C 52.625,862.11218 55.25,866.61218 57,859.86218 C 58.75,853.11218 57.75,851.73718 57,843.86218 C 56.25,835.98718 51.375,837.23718 54,828.36218 C 56.625,819.48718 61.21967,821.86218 66.96967,808.36218 C 72.71967,794.86218 75.703832,784.38462 77,774.36218 C 78.334843,764.04069 73.014087,756.59504 75.5,747.86218 C 82.001496,725.02281 95.664093,704.08765 102.5,682.86218 C 105.05025,674.94366 106.85585,666.22634 107.26777,664.39251 C 107.42361,663.6987 110.85355,657.68756 111,655.36218 C 111.61362,645.61867 109.4231,642.23718 109.7981,624.86218 C 110.1731,607.48718 114.10016,597.82989 111.26256,586.03896 C 110.98223,584.87411 109.58859,578.62946 108.5,576.36218 C 104.44111,567.90844 83.475951,547.77755 75,531.86218 C 71.480078,525.25279 73.773602,517.89162 72.5,513.86218 C 65.629063,492.12383 49.745108,470.19181 39.875,449.23718 C 39.352961,448.12887 38.154298,447.40534 38.15473,442.69214 L 38.1569,419.02681 C 38.157302,414.64591 41.840129,410.65138 42.5,409.36218 C 47.147222,400.28283 46.75,402.73718 48,390.86218 C 49.25,378.98718 49,375.36218 47.5,361.86218 C 46,348.36218 46.5,346.11218 42,336.86218 C 37.5,327.61218 38.25,330.73718 38.25,330.73718"
       id="path7366"
       sodipodi:nodetypes="csssssssssssssssssssssss" />
    <path
       style="fill:none;fill-rule:evenodd;stroke:#27aaea;stroke-width:2;stroke-linecap:butt;stroke-linejoin:miter;stroke-miterlimit:4;stroke-dasharray:none;stroke-opacity:1"
       d="M 265,205.36218 C 265,205.36218 265,205.36218 265,205.36218 C 265,205.36218 270.875,199.11218 265,205.36218 C 259.125,211.61218 252.93948,222.86538 241.23483,229.56668 C 236.56219,232.24193 225.59835,231.02639 220.5,235.86218 C 213.27639,242.71378 211.34835,249.81237 210.5,255.36218 C 207.54352,274.70311 211.30818,294.00729 204.64384,313.30412 C 202.20083,320.37798 190.35571,327.74543 188,333.86218 C 180.2839,353.89752 176.11627,379.23242 168.96967,389.83185 C 164.36845,396.6561 154.14165,403.77982 147.82583,413.89251 C 145.48636,417.63838 145.78453,424.85699 143.87868,430.80152 C 142.65207,434.62744 139.5455,440.2868 138.62132,442.95057 C 135.26162,452.63431 138.77773,462.69213 137,471.86218 C 133.69903,488.88956 131.94538,493.7702 127.09099,511.36218 C 124.30735,521.44989 125.7234,527.60496 125,537.36218 C 124.26776,547.23851 123.625,544.02271 122.5,550.86218 C 120.80621,561.15962 125.1508,568.44701 120.5,578.86218 C 116.48166,587.861 111.81843,594.05321 112.02823,593.72887 C 114.41182,590.044 116.31513,588.58352 136.32997,574.85354 C 148.21735,566.71547 159.46938,556.51406 163.32322,553.42544 C 166.08902,551.20882 169.64239,539.13948 171.5,536.86218 C 179.87838,526.59084 191.29361,518.43831 198.875,507.98718 C 209.17059,493.79446 207.92576,489.57833 217.83947,475.90032 C 224.29957,466.98727 260.88273,430.12747 274.5,415.86218 C 279.36796,410.76257 281.94867,403.6295 286,399.86218 C 298.14294,388.5705 311.85289,380.63917 325,372.86218 C 328.32278,370.89664 333.15317,365.06992 335,363.36218 C 347.09852,352.17482 349.05526,334.23264 363.5,319.36218 C 371.37976,311.25019 373.07475,310.19536 389.5,301.39251 C 411.21452,289.75496 431.70701,286.80354 451.38649,266.29632 C 457.96402,259.44213 469.09727,234.13731 474.5,225.36218 C 481.27936,214.35112 474.5,225.36218 474.5,225.36218"
       id="path8253"
       sodipodi:nodetypes="csssssssssssssssssssssssssssssss" />
    <path
       style="fill:none;fill-rule:evenodd;stroke:#27aaea;stroke-width:2;stroke-linecap:butt;stroke-linejoin:miter;stroke-miterlimit:4;stroke-dasharray:none;stroke-opacity:1"
       d="M 163,550.86218 C 168.625,549.48718 177.80473,547.16801 183.25,546.73718 C 189.23261,546.26384 218.00982,544.66307 224.875,542.23718 C 241.73291,536.28025 249,527.86218 272,515.86218 C 301.83756,500.29475 313.75,504.73718 345,485.86218 C 376.25,466.98718 376,456.86218 397,440.36218 C 418,423.86218 410.5,427.73718 429,419.86218 C 447.5,411.98718 450.86331,417.21757 469.875,407.48718 C 485.75,399.36218 497.10494,390.49462 506,382.86218 C 511.90907,377.79188 517.375,372.36218 518.5,367.36218 C 520.79604,357.15755 515.92465,354.87105 516.25,346.73718 C 516.5,340.61218 519.5,337.98718 519.125,333.36218 C 518.5121,325.80308 512.5803,323.48954 512.75,316.36218 C 512.875,311.11218 518.375,310.11218 520.75,305.36218 C 523.125,300.61218 520.5,297.73718 523,294.23718 C 528.42192,286.6465 531.90605,280.40303 540.625,276.61218 C 546.375,274.11218 554.75,277.95593 557.9375,277.20593 C 561.5182,276.36341 557.40625,274.73718 557.40625,274.73718"
       id="path9140"
       sodipodi:nodetypes="csssssssssssssssss" />
    <path
       style="fill:#daf0fd;fill-opacity:1;fill-rule:evenodd;stroke:#27aaea;stroke-width:1;stroke-linecap:butt;stroke-linejoin:miter;stroke-miterlimit:4;stroke-dasharray:none;stroke-opacity:1"
       d="M 38.122597,172.07296 C 38.023954,177.20158 37.917329,165.15247 57.275649,159.28632 C 63.109281,157.51855 95.621707,161.81633 117.37973,159.28632 C 124.98112,158.40244 129.75409,166.18061 144.24978,169.89292 C 158.74547,173.60523 155.56349,169.18581 175.36248,174.13556 C 195.16147,179.08531 209.12683,184.21183 223.44574,189.69191 C 237.76465,195.17199 225.74384,194.2881 232.63813,196.05587 C 239.53242,197.82364 246.42672,194.81844 251.02291,196.76298 C 255.6191,198.70752 254.91199,203.65726 255.97266,203.83404 C 268.97122,206.00046 284.08015,200.82884 303.34881,203.12694 C 322.61747,205.42504 314.48575,210.02123 328.09755,213.02643 C 341.70936,216.03163 341.00224,215.67808 357.79603,215.14775 C 374.58981,214.61742 378.30213,213.37998 395.27269,210.90511 C 412.24325,208.43024 413.82329,207.42552 425.67828,205.24826 C 428.44909,204.73938 437.36546,204.16983 443.35595,207.36958 C 454.3916,213.26414 461.03362,220.45106 471.64022,225.04725 C 482.24682,229.64344 480.47906,224.69369 485.78236,225.75435 C 491.08566,226.81501 489.12916,228.45785 492.85343,229.28989 C 495.69074,229.92377 496.6552,226.66337 500.6316,229.28989 C 508.28192,234.34313 515.12729,244.13913 523.25902,249.79599 C 531.39075,255.45285 527.32488,252.44764 531.7443,255.45284 C 536.16372,258.45804 543.76512,260.40259 547.30065,263.93812 C 550.83618,267.47366 552.19171,270.41203 555.07882,275.67769 C 557.32422,279.77297 556.65297,275.75643 563.56411,281.61579 C 573.38513,289.94219 579.12046,301.238 591.84838,312.02138 C 604.5763,322.80476 606.34406,318.03178 614.47579,324.7493 C 622.60752,331.46682 620.13265,334.11847 624.37529,338.89144 C 628.61793,343.66441 629.67859,344.01796 631.44636,343.84119 C 644.52103,342.53375 669.8069,340.48243 674.57987,340.30565 C 679.35284,340.12887 686.07035,341.36631 695.79307,343.13408 C 705.51579,344.90185 719.90161,344.71417 719.90076,343.36897 L 719.78332,156.87628 L 38.41376,156.935 L 38.122597,172.07296 z "
       id="path2933"
       sodipodi:nodetypes="cssssssssssssssssssssssssssssssccs" />
    <path
       style="fill:none;fill-rule:evenodd;stroke:#27aaea;stroke-width:2;stroke-linecap:butt;stroke-linejoin:miter;stroke-miterlimit:4;stroke-dasharray:none;stroke-opacity:1"
       d="M 517.81536,369.27572 C 522.88948,359.895 540.60779,345.21416 554.48542,340.79246 C 566.15107,337.07554 581.67797,338.318 594.39609,337.55185 C 601.47427,337.12545 601.26107,337.25337 607.01741,334.99347 C 612.77376,332.73357 615.54533,332.30717 618.9565,330.72951 C 622.36767,329.15184 618.9565,330.72951 618.9565,330.72951"
       id="path15337"
       sodipodi:nodetypes="csssss" />
    <path
       sodipodi:type="arc"
       style="opacity:1;fill:black;fill-opacity:1;fill-rule:nonzero;stroke:none;stroke-width:6;stroke-linecap:round;stroke-linejoin:miter;stroke-miterlimit:4;stroke-dasharray:none;stroke-opacity:1"
       id="path18768"
       sodipodi:cx="228.5"
       sodipodi:cy="716.86218"
       sodipodi:rx="5.5"
       sodipodi:ry="5.5"
       d="M 234 716.86218 A 5.5 5.5 0 1 1  223,716.86218 A 5.5 5.5 0 1 1  234 716.86218 z"
       transform="matrix(1.545455,0,0,1.545455,-276.6364,-330.0157)" />
    <path
       style="fill:#daf0fd;fill-opacity:1;fill-rule:evenodd;stroke:#27aaea;stroke-width:1;stroke-linecap:butt;stroke-linejoin:miter;stroke-miterlimit:4;stroke-dasharray:none;stroke-opacity:1"
       d="M 497.25,560.36218 C 496.37751,558.55009 495.875,554.42468 494.5,553.86218 C 489.76187,551.92385 482.62558,552.76376 476.75,554.86218 C 474.125,555.79968 474.125,557.79968 474.5,560.36218 C 474.98811,563.6976 477.8125,562.04968 479.5,566.61218 C 481.1875,571.17468 478.25,574.92468 479.5,577.86218 C 480.75,580.79968 483.0625,581.61218 485.25,579.11218 C 487.4375,576.61218 486.1875,573.42468 487.75,570.61218 C 489.3125,567.79968 490.15625,567.51843 492,566.86218 C 493.84375,566.20593 493.625,569.79968 493.5,572.86218 C 493.375,575.92468 490.6875,576.54968 491.5,579.11218 C 492.3125,581.67468 494.375,583.48718 496.75,583.11218 C 499.125,582.73718 498.875,575.48718 501,577.61218 C 503.125,579.73718 502,585.67468 505.25,591.61218 C 508.5,597.54968 511.5625,601.92468 514,601.36218 C 516.4375,600.79968 512.875,592.42468 515,589.36218 C 517.125,586.29968 519.625,590.17468 522.5,589.11218 C 525.375,588.04968 525.75,587.36218 526.5,585.11218 C 527.25,582.86218 527.75,583.54968 525.5,580.11218 C 523.25,576.67468 521.4375,576.23718 519.25,572.86218 C 517.0625,569.48718 518.6875,569.36218 516.75,566.61218 C 514.8125,563.86218 512.25,563.42468 509.75,560.36218 C 507.25,557.29968 509.875,554.36218 506.75,554.36218 C 503.625,554.36218 498.00251,561.92509 497.25,560.36218 z "
       id="path19655"
       sodipodi:nodetypes="cssssssszsssssssssssssss" />
    <path
       sodipodi:type="arc"
       style="opacity:1;fill:black;fill-opacity:1;fill-rule:nonzero;stroke:none;stroke-width:6;stroke-linecap:round;stroke-linejoin:miter;stroke-miterlimit:4;stroke-dasharray:none;stroke-opacity:1"
       id="path22316"
       sodipodi:cx="228.5"
       sodipodi:cy="716.86218"
       sodipodi:rx="5.5"
       sodipodi:ry="5.5"
       d="M 234 716.86218 A 5.5 5.5 0 1 1  223,716.86218 A 5.5 5.5 0 1 1  234 716.86218 z"
       transform="matrix(1.545455,0,0,1.545455,-187.4571,-556.9858)" />
    <path
       sodipodi:type="arc"
       style="opacity:1;fill:black;fill-opacity:1;fill-rule:nonzero;stroke:none;stroke-width:6;stroke-linecap:round;stroke-linejoin:miter;stroke-miterlimit:4;stroke-dasharray:none;stroke-opacity:1"
       id="path22318"
       sodipodi:cx="228.5"
       sodipodi:cy="716.86218"
       sodipodi:rx="5.5"
       sodipodi:ry="5.5"
       d="M 234 716.86218 A 5.5 5.5 0 1 1  223,716.86218 A 5.5 5.5 0 1 1  234 716.86218 z"
       transform="matrix(1.545455,0,0,1.545455,46.86353,-526.5161)" />
    <path
       sodipodi:type="arc"
       style="opacity:1;fill:black;fill-opacity:1;fill-rule:nonzero;stroke:none;stroke-width:6;stroke-linecap:round;stroke-linejoin:miter;stroke-miterlimit:4;stroke-dasharray:none;stroke-opacity:1"
       id="path22320"
       sodipodi:cx="228.5"
       sodipodi:cy="716.86218"
       sodipodi:rx="5.5"
       sodipodi:ry="5.5"
       d="M 234 716.86218 A 5.5 5.5 0 1 1  223,716.86218 A 5.5 5.5 0 1 1  234 716.86218 z"
       transform="matrix(1.545455,0,0,1.545455,225.8635,-373.5161)" />
    <path
       sodipodi:type="arc"
       style="opacity:1;fill:black;fill-opacity:1;fill-rule:nonzero;stroke:none;stroke-width:6;stroke-linecap:round;stroke-linejoin:miter;stroke-miterlimit:4;stroke-dasharray:none;stroke-opacity:1"
       id="path22322"
       sodipodi:cx="228.5"
       sodipodi:cy="716.86218"
       sodipodi:rx="5.5"
       sodipodi:ry="5.5"
       d="M 234 716.86218 A 5.5 5.5 0 1 1  223,716.86218 A 5.5 5.5 0 1 1  234 716.86218 z"
       transform="matrix(1.545455,0,0,1.545455,82.15639,-684.0516)" />
    <path
       sodipodi:type="arc"
       style="opacity:1;fill:black;fill-opacity:1;fill-rule:nonzero;stroke:none;stroke-width:6;stroke-linecap:round;stroke-linejoin:miter;stroke-miterlimit:4;stroke-dasharray:none;stroke-opacity:1"
       id="path22324"
       sodipodi:cx="228.5"
       sodipodi:cy="716.86218"
       sodipodi:rx="5.5"
       sodipodi:ry="5.5"
       d="M 234 716.86218 A 5.5 5.5 0 1 1  223,716.86218 A 5.5 5.5 0 1 1  234 716.86218 z"
       transform="matrix(1.545455,0,0,1.545455,177.8635,-516.5161)" />
    <path
       sodipodi:type="arc"
       style="opacity:1;fill:black;fill-opacity:1;fill-rule:nonzero;stroke:none;stroke-width:6;stroke-linecap:round;stroke-linejoin:miter;stroke-miterlimit:4;stroke-dasharray:none;stroke-opacity:1"
       id="path22326"
       sodipodi:cx="228.5"
       sodipodi:cy="716.86218"
       sodipodi:rx="5.5"
       sodipodi:ry="5.5"
       d="M 234 716.86218 A 5.5 5.5 0 1 1  223,716.86218 A 5.5 5.5 0 1 1  234 716.86218 z"
       transform="matrix(1.545455,0,0,1.545455,175.8635,-487.5161)" />
    <text
       xml:space="preserve"
       style="font-size:32px;font-style:normal;font-variant:normal;font-weight:normal;font-stretch:normal;text-align:center;line-height:100%;writing-mode:lr-tb;text-anchor:middle;fill:black;fill-opacity:1;stroke:none;stroke-width:1px;stroke-linecap:butt;stroke-linejoin:miter;stroke-opacity:1;font-family:Arial"
       x="155"
       y="788.36218"
       id="text22328"
       sodipodi:linespacing="100%"><tspan
         sodipodi:role="line"
         id="tspan22330"
         x="135"
         y="788.36218">Cairo</tspan></text>
    <text
       xml:space="preserve"
       style="font-size:28px;font-style:normal;font-variant:normal;font-weight:normal;font-stretch:normal;text-align:center;line-height:100%;writing-mode:lr-tb;text-anchor:middle;fill:black;fill-opacity:1;stroke:none;stroke-width:1px;stroke-linecap:butt;stroke-linejoin:miter;stroke-opacity:1;font-family:Arial"
       x="192"
       y="592.36218"
       id="text22332"
       sodipodi:linespacing="100%"><tspan
         sodipodi:role="line"
         id="tspan22334"
         x="192"
         y="592.36218">Zagazig</tspan></text>
    <text
       xml:space="preserve"
       style="font-size:24.00001144px;font-style:normal;font-variant:normal;font-weight:normal;font-stretch:normal;text-align:center;line-height:100%;writing-mode:lr-tb;text-anchor:middle;fill:#e90000;fill-opacity:1;stroke:none;stroke-width:1px;stroke-linecap:butt;stroke-linejoin:miter;stroke-opacity:1;font-family:Arial"
       x="412.5274"
       y="466.84003"
       id="text22336"
       sodipodi:linespacing="100%"
       transform="matrix(0.96163,0.274348,-0.274348,0.96163,0,0)"><tspan
         sodipodi:role="line"
         id="tspan22338"
         x="402.52741"
         y="466.84003">Canal</tspan></text>
    <text
       xml:space="preserve"
       style="font-size:24.00000381px;font-style:normal;font-variant:normal;font-weight:normal;font-stretch:normal;text-align:center;line-height:100%;writing-mode:lr-tb;text-anchor:middle;fill:#e90000;fill-opacity:1;stroke:none;stroke-width:1px;stroke-linecap:butt;stroke-linejoin:miter;stroke-opacity:1;font-family:Arial"
       x="338.07962"
       y="565.18335"
       id="text22340"
       sodipodi:linespacing="100%"
       transform="matrix(0.999768,2.155784e-2,-2.155784e-2,0.999768,0,0)"><tspan
         sodipodi:role="line"
         id="tspan22342"
         x="338.07962"
         y="565.18335">of the</tspan></text>
    <text
       xml:space="preserve"
       style="font-size:24.00002289px;font-style:normal;font-variant:normal;font-weight:normal;font-stretch:normal;text-align:center;line-height:100%;writing-mode:lr-tb;text-anchor:middle;fill:#e90000;fill-opacity:1;stroke:none;stroke-width:1px;stroke-linecap:butt;stroke-linejoin:miter;stroke-opacity:1;font-family:Arial"
       x="330.53589"
       y="610.79401"
       id="text22344"
       sodipodi:linespacing="100%"
       transform="matrix(0.992667,-0.120884,0.120884,0.992667,0,0)"><tspan
         sodipodi:role="line"
         id="tspan22346"
         x="340.53589"
         y="610.79401">Pharaohs</tspan></text>
    <text
       xml:space="preserve"
       style="font-size:32px;font-style:normal;font-variant:normal;font-weight:normal;font-stretch:normal;text-align:start;line-height:100%;writing-mode:lr-tb;text-anchor:start;fill:#27aaea;fill-opacity:1;stroke:none;stroke-width:1px;stroke-linecap:butt;stroke-linejoin:miter;stroke-opacity:1;font-family:Arial"
       x="449"
       y="197.36218"
       id="text22348"
       sodipodi:linespacing="100%"><tspan
         sodipodi:role="line"
         x="429"
         y="197.36218"
         id="tspan22352">Mediterranean Sea</tspan></text>
    <text
       xml:space="preserve"
       style="font-size:28px;font-style:normal;font-variant:normal;font-weight:normal;font-stretch:normal;text-align:end;line-height:100%;writing-mode:lr-tb;text-anchor:end;fill:#27aaea;fill-opacity:1;stroke:none;stroke-width:1px;stroke-linecap:butt;stroke-linejoin:miter;stroke-opacity:1;font-family:Arial"
       x="552.5"
       y="814.36218"
       id="text22356"
       sodipodi:linespacing="100%"><tspan
         sodipodi:role="line"
         id="tspan22358"
         x="552.5"
         y="814.36218">Gulf</tspan><tspan
         sodipodi:role="line"
         x="552.5"
         y="842.36218"
         id="tspan22360">of Suez</tspan></text>
    <text
       xml:space="preserve"
       style="font-size:20px;font-style:normal;font-variant:normal;font-weight:normal;font-stretch:normal;text-align:start;line-height:100%;writing-mode:lr-tb;text-anchor:start;fill:#27aaea;fill-opacity:1;stroke:none;stroke-width:1px;stroke-linecap:butt;stroke-linejoin:miter;stroke-opacity:1;font-family:Arial"
       x="568.51471"
       y="663.48346"
       id="text22362"
       sodipodi:linespacing="100%"><tspan
         sodipodi:role="line"
         id="tspan22364"
         x="568.51471"
         y="663.48346">Bitter</tspan><tspan
         sodipodi:role="line"
         x="568.51471"
         y="683.48346"
         id="tspan22366">Lakes</tspan></text>
    <text
       xml:space="preserve"
       style="font-size:20px;font-style:normal;font-variant:normal;font-weight:normal;font-stretch:normal;text-align:center;line-height:100%;writing-mode:lr-tb;text-anchor:middle;fill:#27aaea;fill-opacity:1;stroke:none;stroke-width:1px;stroke-linecap:butt;stroke-linejoin:miter;stroke-opacity:1;font-family:Arial"
       x="523"
       y="546.31195"
       id="text22368"
       sodipodi:linespacing="100%"><tspan
         sodipodi:role="line"
         id="tspan22370"
         x="533"
         y="546.31195">Lake Timsah</tspan></text>
    <path
       sodipodi:type="arc"
       style="opacity:1;fill:black;fill-opacity:1;fill-rule:nonzero;stroke:none;stroke-width:6;stroke-linecap:round;stroke-linejoin:miter;stroke-miterlimit:4;stroke-dasharray:none;stroke-opacity:1"
       id="path22372"
       sodipodi:cx="228.5"
       sodipodi:cy="716.86218"
       sodipodi:rx="5.5"
       sodipodi:ry="5.5"
       d="M 234 716.86218 A 5.5 5.5 0 1 1  223,716.86218 A 5.5 5.5 0 1 1  234 716.86218 z"
       transform="matrix(1.545455,0,0,1.545455,259.8635,-774.5161)" />
    <text
       xml:space="preserve"
       style="font-size:24px;font-style:normal;font-variant:normal;font-weight:normal;font-stretch:normal;text-align:center;line-height:100%;writing-mode:lr-tb;text-anchor:middle;fill:black;fill-opacity:1;stroke:none;stroke-width:1px;stroke-linecap:butt;stroke-linejoin:miter;stroke-opacity:1;font-family:Arial"
       x="610"
       y="366.36218"
       id="text22374"
       sodipodi:linespacing="100%"><tspan
         sodipodi:role="line"
         id="tspan22376"
         x="610"
         y="366.36218">Pelusium</tspan></text>
    <text
       xml:space="preserve"
       style="font-size:24px;font-style:normal;font-variant:normal;font-weight:normal;font-stretch:normal;text-align:center;line-height:100%;writing-mode:lr-tb;text-anchor:middle;fill:black;fill-opacity:1;stroke:none;stroke-width:1px;stroke-linecap:butt;stroke-linejoin:miter;stroke-opacity:1;font-family:Arial"
       x="443"
       y="459.36218"
       id="text22378"
       sodipodi:linespacing="100%"><tspan
         sodipodi:role="line"
         id="tspan22380"
         x="443"
         y="459.36218">Daphnae</tspan></text>
    <text
       xml:space="preserve"
       style="font-size:24px;font-style:normal;font-variant:normal;font-weight:normal;font-stretch:normal;text-align:center;line-height:100%;writing-mode:lr-tb;text-anchor:middle;fill:black;fill-opacity:1;stroke:none;stroke-width:1px;stroke-linecap:butt;stroke-linejoin:miter;stroke-opacity:1;font-family:Arial"
       x="533"
       y="759.36218"
       id="text22382"
       sodipodi:linespacing="100%"><tspan
         sodipodi:role="line"
         id="tspan22384"
         x="533"
         y="759.36218">Kabrit</tspan></text>
    <text
       xml:space="preserve"
       style="font-size:24px;font-style:normal;font-variant:normal;font-weight:normal;font-stretch:normal;text-align:center;line-height:100%;writing-mode:lr-tb;text-anchor:middle;fill:black;fill-opacity:1;stroke:none;stroke-width:1px;stroke-linecap:butt;stroke-linejoin:miter;stroke-opacity:1;font-family:Arial"
       x="599"
       y="628.36218"
       id="text22386"
       sodipodi:linespacing="100%"><tspan
         sodipodi:role="line"
         id="tspan22388"
         x="599"
         y="628.36218">Serapeum</tspan></text>
    <text
       xml:space="preserve"
       style="font-size:24px;font-style:normal;font-variant:normal;font-weight:normal;font-stretch:normal;text-align:center;line-height:100%;writing-mode:lr-tb;text-anchor:middle;fill:black;fill-opacity:1;stroke:none;stroke-width:1px;stroke-linecap:butt;stroke-linejoin:miter;stroke-opacity:1;font-family:Arial"
       x="398"
       y="614.36218"
       id="text22408"
       sodipodi:linespacing="100%"><tspan
         sodipodi:role="line"
         id="tspan22410"
         x="398"
         y="614.36218">Heropolis</tspan></text>
    <path
       style="fill:none;fill-rule:evenodd;stroke:#27aaea;stroke-width:2.20000005;stroke-linecap:butt;stroke-linejoin:miter;stroke-miterlimit:4;stroke-dasharray:4.4, 4.4;stroke-dashoffset:0;stroke-opacity:1"
       d="M 529.5,892.36218 C 531.75,885.11218 529,876.98718 538.5,863.36218 C 548,849.73718 557,859.48718 567.5,837.86218 C 578,816.23718 573.125,795.11218 580.5,776.86218 C 587.875,758.61218 587.375,767.86218 597,764.86218 C 606.625,761.86218 609.25,755.23718 619,764.86218 C 628.75,774.48718 630.625,788.36218 636,803.36218 C 641.375,818.36218 638.75,812.73718 640.5,824.86218 C 642.25,836.98718 643.5,841.36218 643,851.86218 C 642.5,862.36218 637.375,855.98718 638.5,866.86218 C 639.625,877.73718 646.61917,891.8976 646.61917,891.8976"
       id="path22412"
       sodipodi:nodetypes="cssssssssss" />
    <text
       xml:space="preserve"
       style="font-size:23.99998856px;font-style:normal;font-variant:normal;font-weight:normal;font-stretch:normal;text-align:center;line-height:100%;writing-mode:lr-tb;text-anchor:middle;fill:#27aaea;fill-opacity:1;stroke:none;stroke-width:1px;stroke-linecap:butt;stroke-linejoin:miter;stroke-opacity:1;font-family:Arial"
       x="-573.29541"
       y="360.67239"
       id="text25954"
       sodipodi:linespacing="100%"
       transform="matrix(0.410961,-0.911653,0.911653,0.410961,0,0)"
       inkscape:transform-center-x="96.80781"
       inkscape:transform-center-y="-25.068995"><tspan
         sodipodi:role="line"
         id="tspan25956"
         x="-573.29541"
         y="360.67239">Nile</tspan></text>
    <path
       style="fill:none;fill-rule:evenodd;stroke:black;stroke-width:6;stroke-linecap:butt;stroke-linejoin:miter;stroke-miterlimit:4;stroke-dasharray:none;stroke-opacity:1"
       d="M 102.34801,869.7636 L 161.65199,869.96076 L 161.65199,869.96076"
       id="path25958" />
    <text
       xml:space="preserve"
       style="font-size:24px;font-style:normal;font-variant:normal;font-weight:normal;font-stretch:normal;text-align:center;line-height:100%;writing-mode:lr-tb;text-anchor:middle;fill:black;fill-opacity:1;stroke:none;stroke-width:1px;stroke-linecap:butt;stroke-linejoin:miter;stroke-opacity:1;font-family:Arial"
       x="136"
       y="859.36218"
       id="text26845"
       sodipodi:linespacing="100%"><tspan
         sodipodi:role="line"
         id="tspan26847"
         x="136"
         y="859.36218">40 km</tspan></text>
    <path
       id="path26849"
       d="M 161.34801,869.94038 L 220.65199,870.13754 L 220.65199,870.13754"
       style="fill:none;fill-rule:evenodd;stroke:black;stroke-width:6;stroke-linecap:butt;stroke-linejoin:miter;stroke-miterlimit:4;stroke-dasharray:none;stroke-opacity:1" />
    <rect
       style="opacity:1;fill:none;fill-opacity:1;fill-rule:nonzero;stroke:black;stroke-width:2;stroke-linecap:round;stroke-linejoin:miter;stroke-miterlimit:4;stroke-dasharray:none;stroke-dashoffset:0;stroke-opacity:1"
       id="rect1927"
       width="681.65094"
       height="735.39105"
       x="38.183765"
       y="156.75078" />
    <text
       xml:space="preserve"
       style="font-size:24px;font-style:normal;font-variant:normal;font-weight:normal;font-stretch:normal;text-align:center;line-height:100%;writing-mode:lr-tb;text-anchor:middle;fill:black;fill-opacity:1;stroke:none;stroke-width:1px;stroke-linecap:butt;stroke-linejoin:miter;stroke-opacity:1;font-family:Arial"
       x="608.11188"
       y="598.3996"
       id="text11666"
       sodipodi:linespacing="100%"><tspan
         sodipodi:role="line"
         id="tspan11668"
         x="608.11188"
         y="598.3996">Thaubastum</tspan></text>
    <text
       xml:space="preserve"
       style="font-size:20px;font-style:normal;font-variant:normal;font-weight:normal;font-stretch:normal;text-align:center;line-height:100%;writing-mode:lr-tb;text-anchor:middle;fill:#27aaea;fill-opacity:1;stroke:none;stroke-width:1px;stroke-linecap:butt;stroke-linejoin:miter;stroke-opacity:1;font-family:Arial"
       x="557.90723"
       y="440.00772"
       id="text11670"
       sodipodi:linespacing="100%"><tspan
         sodipodi:role="line"
         id="tspan11672"
         x="557.90723"
         y="440.00772">Zarou</tspan><tspan
         sodipodi:role="line"
         x="557.90723"
         y="460.00772"
         id="tspan11674">Lake</tspan></text>
  </g>
</svg>
