<svg id="Layer_1" data-name="Layer 1" xmlns="http://www.w3.org/2000/svg" xmlns:xlink="http://www.w3.org/1999/xlink" viewBox="0 0 920 451.05"><defs><style>.cls-1,.cls-11,.cls-4,.cls-5{fill:none;}.cls-2{font-size:14.49px;}.cls-10,.cls-2{font-family:Roboto-Thin, Roboto;}.cls-3{clip-path:url(#clip-path);}.cls-4{stroke:#fff;stroke-linejoin:round;}.cls-5,.cls-6{stroke:#000;stroke-width:0.25px;}.cls-11,.cls-5,.cls-6,.cls-9{stroke-miterlimit:10;}.cls-7{fill:#5f8696;}.cls-8{fill:#ec8a6a;}.cls-11,.cls-9{stroke:#919191;}.cls-10{font-size:13.21px;fill:#020202;}</style><clipPath id="clip-path"><rect class="cls-1" x="72.09" y="2" width="751.38" height="422.65"/></clipPath></defs><title>total</title><text class="cls-2" transform="translate(104.96 445.89)">2008</text><text class="cls-2" transform="translate(186.63 445.89)">2009</text><text class="cls-2" transform="translate(268.31 445.89)">2010</text><text class="cls-2" transform="translate(349.98 445.89)">2011</text><text class="cls-2" transform="translate(431.65 445.89)">2012</text><text class="cls-2" transform="translate(513.32 445.89)">2013</text><text class="cls-2" transform="translate(594.99 445.89)">2014</text><text class="cls-2" transform="translate(676.67 445.89)">2015</text><text class="cls-2" transform="translate(758.34 445.89)">2016</text><g class="cls-3"><line class="cls-4" x1="72.09" y1="424.65" x2="823.47" y2="424.65"/></g><text class="cls-2" transform="translate(59.45 429.84)">0</text><text class="cls-2" transform="translate(43.39 357.02)">200</text><rect class="cls-1" x="72.09" y="2" width="751.38" height="422.65"/><text class="cls-2" transform="translate(43.39 287.94)">400</text><rect class="cls-1" x="72.09" y="2" width="751.38" height="422.65"/><text class="cls-2" transform="translate(43.39 216.99)">600</text><rect class="cls-1" x="72.09" y="2" width="751.38" height="422.65"/><text class="cls-2" transform="translate(43.39 146.04)">800</text><text class="cls-2" transform="translate(47.96 15.17)">1.2</text><line class="cls-5" x1="72.19" y1="355.3" x2="823.57" y2="355.3"/><line class="cls-5" x1="71.48" y1="287.94" x2="822.86" y2="287.94"/><line class="cls-5" x1="72.19" y1="220.58" x2="823.57" y2="220.58"/><line class="cls-5" x1="71.48" y1="145.7" x2="822.86" y2="145.7"/><line class="cls-5" x1="71.48" y1="75.09" x2="822.86" y2="75.09"/><line class="cls-6" x1="71.48" y1="15.17" x2="822.86" y2="15.17"/><rect class="cls-1" x="72.09" y="2" width="751.38" height="422.65"/><text class="cls-2" transform="translate(15.24 75.09)">1 million<tspan x="2.84" y="17.39">animals</tspan></text><rect class="cls-7" x="92.5" y="69.98" width="57.17" height="354.67"/><rect class="cls-1" x="72.09" y="2" width="751.38" height="422.65"/><g class="cls-3"><rect class="cls-7" x="174.18" y="77.08" width="57.17" height="347.57"/></g><rect class="cls-7" x="255.95" y="22.13" width="57.17" height="402.53"/><rect class="cls-1" x="72.09" y="2" width="751.38" height="422.65"/><g class="cls-3"><rect class="cls-7" x="337.52" y="78.27" width="57.17" height="346.38"/></g><g class="cls-3"><rect class="cls-7" x="419.19" y="86.63" width="57.17" height="338.02"/></g><g class="cls-3"><rect class="cls-7" x="500.86" y="108.52" width="57.17" height="316.13"/></g><g class="cls-3"><rect class="cls-7" x="582.53" y="128.63" width="57.17" height="296.02"/></g><g class="cls-3"><rect class="cls-7" x="664.21" y="152.34" width="57.17" height="272.31"/></g><g class="cls-3"><rect class="cls-8" x="745.88" y="133.47" width="57.17" height="291.18"/></g><line class="cls-9" x1="72.09" y1="424.65" x2="72.09" y2="2"/><text class="cls-10" transform="translate(749.56 128.1)">820.812</text><line class="cls-11" x1="72.09" y1="424.65" x2="823.47" y2="424.65"/></svg>